<svg xmlns="http://www.w3.org/2000/svg" data-name="Layer 1" width="464.63004" height="414.65166" viewBox="0 0 464.63004 414.65166" xmlns:xlink="http://www.w3.org/1999/xlink"><path d="M433.67508,352.54864c-14.9451,14.63937-13.00479,41.15714.73958,56.92924s36.06792,21.85293,56.95844,20.73349,40.8724-8.492,59.427-12.86549l-3.63991-58.84518C506.919,358.90513,466.6778,359.30956,433.67508,352.54864Z" transform="translate(-367.68498 -242.67417)" fill="#ff5722"/><path d="M827.96238,471.7131c-2.95231-14.55524-4.96515-29.27745-7.90784-43.83467-4.05163-20.70675-4.463-46.23031-7.72789-70.722-2.80166-18.60749-6.76457-37.10169-13.471-54.7239-3.9512-11.15893-8.7431-22.1354-15.86337-31.6668-9.40471-12.16776-21.71736-23.56428-37.07439-27.11657-11.84438-2.35358-23.84067.09154-35.6202,1.69387-22.53505,3.53921-46.16188,6.3959-72.11081,7.01911-22.9485.99543-45.92169.68367-68.88358.91383-28.0124.68985-56.04573.6819-84.04559,1.81041-12.60433.521-25.148,2.66743-35.8558,3.81906-12.38,1.22058-24.8337,1.01354-37.2447,1.64794-2.55978.21855-5.11663.48668-7.66219.83328,2.923.059,5.84938.15211,8.76444.3853-27.19053,3.69227-38.35657,7.682-42.15419,39.62277-1.03446,11.48638-.4168,23.03365-.09039,34.53992.34859,9.74408.22346,19.49957.67206,29.24009,1.486,24.68253,3.55282,49.39541,1.72577,74.12209-.4147,9.44833-.55238,18.91622-1.64668,28.3203-1.22611,12.07559-3.17535,24.08244-3.6771,36.224-.14144,6.137-1.01981,12.39373.36826,18.441,3.40049,10.79716,15.5286,13.59014,25.14505,16.4735,11.58577,3.56767,23.19623,7.2727,35.1762,9.27937a139.531,139.531,0,0,0,27.72115,1.18992c21.83286-1.02012,43.76573-.74623,65.41236-4.16451,12.919-1.86418,29.87962-2.8548,40.91176-1.57031-2.37357,17.692-.85912,35.54488.81643,53.24408.75785,4.84568.79175,9.91984,1.43243,14.83488-2.74056,7.76284-5.27691,15.6-8.03673,23.35619-1.21984,3.61057-2.44093,7.22081-3.629,10.842-1.04743,2.786-1.69815,6.2057.59,8.56514,2.80292,2.95242,7.34583,2.58992,11.09784,2.91287a155.32879,155.32879,0,0,0,18.12479-.44473c8.261-.63607,20.1075-2.999,23.87666-3.37977q-.715.096-1.42949.192c8.64852-1.10591,17.38619-1.24411,26.0502-2.20649,11.46608-1.41945,22.99118-2.25964,34.47317-3.54141,4.8689-.84876,13.553.07187,13.03744-7.08188-.66453-12.6446-11.60209-21.00533-19.96355-29.18643-2.72507-2.65791-5.582-5.18338-8.20829-7.93817a85.7291,85.7291,0,0,0,1.79775-17.84117c.07448-13.0591-1.10979-26.08263-2.21831-39.08283-.01591-.157-.04269-.31281-.05985-.46974,4.06-.60876,8.11707-1.22685,12.17289-1.8013,16.612-3.047,40.55689-2.334,61.38584-3.09009,28.1007-1.70077,74.56221,4.53046,95.51042-15.98651,6.90476-5.9631,12.36329-13.99512,12.58634-23.3813C832.90451,491.75657,829.358,481.79216,827.96238,471.7131ZM563.12879,543.53182c1.45084.17649,2.80627.38928,4.02109.64988,14.63139,2.726,29.25024,5.97294,44.21641,5.88684,13.00648-.00115,25.897-1.81041,38.752-3.73517-1.62533,17.62608-2.12541,35.01677-5.42212,50.26489-1.96974,8.985-4.67264,14.79167-9.983,18.78273-1.64542,1.24746-6.14816,1.215-12.87968,1.37676a270.16986,270.16986,0,0,0-30.94505,2.3901c-8.46732,1.01845-12.61813,1.11606-14.48409-.81058-2.09068-3.44485-1.263-2.02466-2.397-5.248-1.4182-6.0379-2.179-12.22069-3.608-18.265C566.79627,576.653,563.46231,561.23374,563.12879,543.53182Zm88.02776,61.19324c7.44291,11.62448,20.7306,24.0339,21.18883,35.07535-7.88942.3738-15.80144.3082-23.69631.58188-7.01858.06748-14.0108.69874-21.01725,1.03655-7.5015.37945-15.04025.38562-22.48232,1.5089-16.84385,2.92249-30.60735,6.54728-45.41115,6.1307a5.57015,5.57015,0,0,0,.241-1.17235c2.31665-10.51741,4.13616-21.12731,5.92554-31.74171a26.37906,26.37906,0,0,0,2.46353,6.54833c4.71616,8.19658,15.40808,7.16735,23.51176,6.39329,9.71144-1.05507,19.4459-1.81407,29.18915-2.49911,7.03783-.67018,15.22981-.07093,20.57995-5.51816a35.20689,35.20689,0,0,0,9.25447-16.75691C650.98958,604.44876,651.06951,604.58905,651.15655,604.72506ZM822.5729,497.74739c-.00168,1.10717-.02427,2.21476-.09876,3.3191a20.41288,20.41288,0,0,1-.19,2.17259c-1.522,7.14853-2.23714,7.77707-7.70571,13.56326-4.60192,4.21567-4.1801,4.40419-9.20133,7.17478-14.94985,7.57975-36.58728,7.29551-58.26028,7.45118-15.59388.03975-31.17688.61389-46.76741.82166-12.12142.09343-24.27338.28153-36.28306,2.09256-21.57382,2.82646-38.10842,6.87369-61.17116,5.52852-12.15573-.40215-22.75559-3.72962-37.21457-5.798-19.33082-2.76651-38.73446.72625-57.92551,3.01037C492.871,538.736,477.868,538.41047,462.934,539.30234c-19.23834,1.049-32.51766.5166-49.975-4.7261-7.67642-2.14738-15.26663-4.59031-22.91-6.85172-8.07773-2.70907-9.85372-3.23614-12.52942-7.9365-1.52741-6.83624,1.6358-35.95037,3.59132-51.48138,1.33408-11.43941,1.32571-22.965,1.95467-34.45162,1.24453-20.06325-.11257-40.13424-1.40606-60.15836-.95871-14.41536-.77208-28.88377-2.04757-43.28229-.99931-18.40307-5.06433-41.02192,6.07326-56.00954,8.02333-7.50694,19.09271-9.41119,29.38415-12.47073.10169.01046.20338.01643.30506.02731,11.31795,1.17883,22.63758,2.54377,34.0275,2.73585,10.11485.09813,20.21631-.7907,30.332-.72155,16.44463.14176,32.88466.80138,49.33264.53753,19.19524-.27148,38.38-1.09315,57.57943-1.09587,30.02149-.17021,60.1275-.18967,90.02805-3.1719,22.15089-2.03157,48.06383-8.00387,63.5192-6.83111,18.478,2.37074,35.56161,21.5915,44.15113,42.10209,1.30145,3.38679,8.6523,22.21566,11.0472,31.075a313.38708,313.38708,0,0,1,7.2069,35.27213c2.6757,21.49306,3.87252,53.07868,9.7989,77.75379q4.28848,23.06787,8.36062,46.17852C821.43591,491.80585,822.75535,493.88167,822.5729,497.74739Z" transform="translate(-367.68498 -242.67417)"/><path d="M402.46839,278.44935c-9.03729.224-9.01343,13.464.00042,13.71244C411.50609,291.9378,411.48266,278.69792,402.46839,278.44935Z" transform="translate(-367.68498 -242.67417)"/><path d="M746.60671,296.1473c-17.88249-4.54271-36.54376-2.73795-54.80622-2.94488-33.00016.20913-65.86934,3.05881-98.55815,7.46781-20.98,2.50078-42.10356,4.23513-63.24468,3.45479-16.87273-.43333-33.75885-1.62011-50.63576-.753-28.12539,1.63591-56.324,4.19778-83.95269,9.85728,30.594-2.03732,61.31679-.67457,91.9392.06873,22.71792,1.3299,45.46011,3.32036,68.2362,2.42284,21.4487-.94543,42.71913-3.845,64.03392-6.24211,22.74177-2.52934,45.57017-4.15729,68.31529-6.65347,19.951-1.423,40.80505-6.32236,60.37984-3.89523,4.48642.68274,8.8791,1.87245,13.36636,2.5601C756.62866,299.78381,751.77733,297.48787,746.60671,296.1473Z" transform="translate(-367.68498 -242.67417)"/><path d="M424.038,278.15893c-9.03729.224-9.01386,13.464.00041,13.71244C433.07573,291.64738,433.0523,278.4075,424.038,278.15893Z" transform="translate(-367.68498 -242.67417)"/><path d="M446.44335,275.66945c-9.03729.224-9.01385,13.464,0,13.71244C455.48105,289.1579,455.45762,275.918,446.44335,275.66945Z" transform="translate(-367.68498 -242.67417)"/><path d="M540.59584,368.97851c-.93989-6.27036-1.9551-12.53664-3.47289-18.69694-1.17464-4.93408-3.272-10.51993-8.551-12.20594-6.508-1.87956-13.30443-.759-19.85349.31123-10.39732,1.59532-15.13357,2.59483-24.93,3.21637-21.50352,1.58914-52.5967,1.18772-69.251,4.45022,13.484-.03,26.96121,1.05894,40.41085,1.95091,13.15587.802,26.37619,1.68225,39.553.91917,8.14595-.5255,16.22243-1.87506,24.37088-2.3177,4.24413.1269,2.7573-.197,6.583.751,2.66105,2.66649,6.25111,27.35415,7.20606,37.92074.71684,8.06759-1.05329,14.51831-2.09193,15.9795-.78212.18779-1.75256.34084-2.19279.405.159-.02114.40173-.05263.75325-.09678-.59967.06821-1.19724.15107-1.7944.23686.272-.04185.4758-.07093.64109-.09353-.18412.02071-.42349.04645-.7478.07773a178.88045,178.88045,0,0,1-27.68726.36888c-3.92441-.22022-7.82-.78264-11.74228-1.01751a110.27933,110.27933,0,0,0-14.42467.87586c-17.22633,1.69962-45.41073,10.39606-58.10043,3.50835-.059-.041-.118-.08139-.17659-.12188-.60051-.6638-.62729-.43322-.92524-1.06291-.05315-.1291-.08328-.20579-.10839-.27253-1.70819-6.71582-1.78142-14.50283-2.67486-22.923-.5507-8.21573-2.53425-16.21427-4.178-24.25528-.92272-4.836-1.21733-9.77714-1.96681-14.95487.10085,5.07677-.17408,10.163.18078,15.232.70554,8.14773,1.8124,16.28185,1.49729,24.47937-.07784,6.17892-.24355,12.36465.02134,18.541.19,3.63065.50091,7.65089,3.37455,10.24279,13.42662,11.605,49.16106,2.518,60.79579,1.44237a92.03932,92.03932,0,0,1,26.05062-.18737,191.13775,191.13775,0,0,0,28.23754.14667c4.07047-.46021,8.78286-.14218,11.96951-3.127C546.554,397.83,542.19188,381.78653,540.59584,368.97851Z" transform="translate(-367.68498 -242.67417)"/><path d="M528.3765,401.6621c-.344.04582-.27995.0408,0,0Z" transform="translate(-367.68498 -242.67417)"/><path d="M527.97644,401.70865c.50384-.05681.48878-.067,0,0Z" transform="translate(-367.68498 -242.67417)"/><path d="M702.48027,340.08156c-17.73017.5368-35.50177.05953-53.20265,1.30417-13.54714.98685-26.90807,3.55877-40.15977,6.44862,27.52364-1.41212,55.35359-.17429,82.57844-5.06265,4.42114-.83359,8.823-1.77013,13.22868-2.68C704.11021,340.08564,703.295,340.07884,702.48027,340.08156Z" transform="translate(-367.68498 -242.67417)"/><path d="M705.19781,368.72659c-10.57809-3.88319-22.13164-1.83687-33.14745-1.9825-9.8554.17356-19.67941.99983-29.51849,1.52093-8.73431.34942-17.48955.51263-26.149,1.81846,16.26468,1.157,32.47706,3.91532,48.82754,2.41,7.9321-.504,15.82069-1.50806,23.66994-2.7393,5.41291-.80974,9.21848-1.61059,15.39929-1.00036C704.74294,368.75358,706.3779,369.12665,705.19781,368.72659Z" transform="translate(-367.68498 -242.67417)"/><path d="M620.46928,399.59747c11.44977.40277,22.90623,1.34758,34.3673.82721a264.2672,264.2672,0,0,0,52.541-8.87157C675.51194,391.93057,651.00841,395.22027,620.46928,399.59747Z" transform="translate(-367.68498 -242.67417)"/><path d="M718.38842,434.61088c-24.53366-.59475-48.8786-5.00731-73.46959-3.91834-25.561.10629-44.84245,5.60321-68.10145,6.21261-20.28577,1.04241-40.613-.74729-60.88619.60615-14.35772,1.13395-28.62086,3.243-42.93087,4.84788a285.03122,285.03122,0,0,0-51.40993,10.36342,328.01659,328.01659,0,0,1,44.70519-4.25281c16.14543-.18047,32.27286-.96887,48.41033-1.404,21.76632.05942,43.52552,1.93521,65.29435.72646,26.40758-1.21618,45.48439-6.147,70.40848-7.50244,22.96775-2.25325,46.1598-.69539,69.07105-3.66287q6.4911-.824,12.968-1.75276Q725.41747,434.76514,718.38842,434.61088Z" transform="translate(-367.68498 -242.67417)"/><path d="M708.78662,458.54519c-20.88293.05263-45.18895,4.82235-62.15,6.8081-18.48718,2.23044-37.11916,2.76169-55.7231,3.006-30.35751.48522-60.62548,2.888-90.92231,4.64712-11.9557.51744-23.92144.77992-35.87421,1.37059-9.52857.54673-19.03413,1.68654-27.99651,5.13526,9.54489-2.37011,19.35007-2.32157,29.10629-1.72054,12.59721.76465,25.17769,1.87015,37.79373,2.28161,32.23059,1.06281,64.46327-.577,96.69345-.84866a281.53189,281.53189,0,0,0,53.08882-5.97c19.88739-4.43694,39.43958-10.4014,59.64793-13.32,3.08915-.50938,6.18-1.015,9.28126-1.4432Q715.25973,458.41312,708.78662,458.54519Z" transform="translate(-367.68498 -242.67417)"/><path d="M709.78969,491.8592c-20.00163,1.22507-40.05222,1.359-60.04046,2.76212-25.68362,2.64253-51.48943,2.95534-77.25591,4.25322-19.96229.9153-39.92374,1.83709-59.90152,2.33821-17.70967,1.17025-35.72816,1.94107-52.86034,6.90539a146.30115,146.30115,0,0,1,28.43757-1.3388q17.55441.24481,35.04438,1.79587c16.52958,1.36034,33.12947,1.69564,49.70926,1.6268,26.69465-.24376,53.37465-1.97434,79.62362-7.02444,19.14627-2.97208,38.34737-5.51931,57.2367-9.92957a66.35822,66.35822,0,0,1,7.99237-1.05507A65.379,65.379,0,0,0,709.78969,491.8592Z" transform="translate(-367.68498 -242.67417)"/></svg>