<svg xmlns="http://www.w3.org/2000/svg" data-name="Layer 1" width="761.91972" height="586.07333" viewBox="0 0 761.91972 586.07333" xmlns:xlink="http://www.w3.org/1999/xlink"><path d="M737.20653,185.9616c-11.53315,7.06809-23.17407,14.26629-32.6374,23.93152-25.76127,26.31089-31.05495,69.25645-15.64164,102.698S738.1688,369.2956,774.45932,375.533c24.10831,4.14356,51.85185.01292,67.42366-18.85235,7.985-9.67386,11.82875-22.0332,15.10869-34.14048a601.37154,601.37154,0,0,0,17.21554-90.75794c2.21311-19.906,12.88946-66.62413,2.76191-84.733C856.46919,110.3936,760.93091,171.4221,737.20653,185.9616Z" transform="translate(-187.59806 -118.24816)" fill="#ff5722"/><path d="M870.42983,562.1881c-.31246-.79678-.57377-1.49528-.8706-2.26409a18.21733,18.21733,0,0,0,6.31348-6.00581,33.88747,33.88747,0,0,0,.98249-33.21718c-3.97733-7.46053-14.59044-19.75035-23.15894-11.70295-3.37005,4.26787-3.60616,10.00557-4.382,15.22041-.57277-.45055-1.06767-.92328-1.68679-1.36249-4.69524-3.35745-10.43446-4.665-16.08749-5.273-7.85236-.917-15.69918-2.028-23.59261-2.5138a11.6565,11.6565,0,0,1,1.688.21544c-7.94031-1.012-15.96654-1.2826-23.959-1.5744-15.92294-.49465-31.77079,2.45484-47.66677,2.255-2.85928-4.80259-6.54758-16.623-12.61438-30.58646-6.40848-14.74718-15.111-28.72228-26.71546-39.93713-9.46607-8.4929-20.62246-14.84268-31.87662-20.64766-8.8283-4.543-18.1006-8.38884-28.11348-9.03946-15.33153-.89531-30.71548,1.12864-46.03139,1.88258-22.91779,1.35064-45.81694,2.75344-68.66973,4.95554-25.39506,2.02646-51.10384,3.60616-75.90044,9.75661-11.4875,3.3315-23.89978,6.01161-33.27338,13.85162-15.41544,16.87343-22.63053,39.60325-34.80091,58.75437-9.58854,15.81106-13.0173,22.01443-19.75185,26.42543-9.71479,1.68553-32.18758,8.20086-45.07233,14.88-5.00544,2.2142-10.12981,4.534-13.91311,8.61235-4.31978,4.13987-4.97267,10.252-3.69637,15.86549.86658,6.53952,2.20411,13.00092,3.61725,19.44065.14136.63148.2419,1.25035.377,1.87956a123.76229,123.76229,0,0,1-16.97876.23737c-2.80208.00554-6.11417-.91874-8.43571,1.10672-2.47777,2.64861-2.45232,6.67962-2.6975,10.09982-.10407,4.95982-.6282,10.05849.571,14.92281,1.82916,6.05167,9.38393,5.97305,14.58868,6.12349a152.5759,152.5759,0,0,0,17.87406-1.0717c.25753,2.21647.51758,4.42411.76654,6.67282.14514-2.27618.24216-4.55362.35681-6.83081a21.42647,21.42647,0,0,0,4.44552-1.11478c-1.44362-.16682-2.90035-.31473-4.36312-.45811a325.982,325.982,0,0,0-.19479-38.08125c-.0514-6.1933-1.137-13.97485.15548-19.40588.37445-.13406,1.20449-1.37383,2.002-1.80019q.68112-.53293-.12423.09752c-.73554.56722-.01663.03755.41225-.24694.50825-.32229,1.02029-.638,1.55576-.91395,7.9786-3.32041,25.71558-8.47779,38.24227-10.44554,4.77512-1.14679,9.79794-.3994,18.22886-2.92631,9.14252-3.39575,15.91689-10.8724,21.94614-18.252a349.21659,349.21659,0,0,0,22.52974-31.36459c6.17237-9.79516,11.98617-19.83778,18.81447-29.2a20.76734,20.76734,0,0,1,1.7964-1.82135c.67985-.4125,1.36979-.80031,2.08593-1.14779,30.46551-9.69639,49.44125-10.95985,80.19679-12.72828-1.57768,18.08145-2.76654,36.19918-4.54783,54.26047-.00428.03855.09122-.66877.1391-1.0218l-.01033.07736a24.77331,24.77331,0,0,1-1.81354,7.55854c-1.06388,1.306-2.75092,1.97531-4.52086,2.72321-8.36868,3.0911-12.94574,3.72383-21.3623,3.41515a306.09034,306.09034,0,0,0-55.49141,1.29016c-3.72358.3989-7.44364.84693-11.16395,1.268,17.60167,3.1221,34.07167,4.60856,52.328,6.8671.62694.11264,2.40974.26307,1.73038.218q-.62743-.08543.05141.01109c6.60176.93159,13.19646,2.27517,19.88919,2.21772,10.4289-.56218,23.41622-2.541,29.07177-12.42186,3.23524-7.47867,1.745-15.98569,1.38743-23.88467-1.18357-14.25958-2.85171-28.48439-5.13747-42.61018,3.77751-.217,7.69815-.44047,11.87556-.69044,11.47036-.74487,22.93064-1.6442,34.3869-2.59822,5.936,53.48687,4.93638,107.62815,15.8103,158.75921,1.30175-30.999,3.61044-62.19371.24316-93.13472-2.21923-22.4869-8.24822-44.40608-15.81156-65.64288,12.51938-1.04372,25.03346-2.157,37.54528-3.269,3.1221-.23939,6.07058-.49389,8.93943-.74487,2.922,26.22964,2.87464,53.32686,10.71919,78.62894,11.62559,19.81938,40.8924,10.57858,59.4496,8.55514,5.93677-.94469,11.82969-2.12171,17.71632-3.33326-.3102,6.95933-1.05456,15.71329-1.837,20.70235-.08769,1.99547-1.62908,4.98855,1.44363,6.87214,8.12425,3.59255,15.76746-4.66652,18.53476-11.65029a21.97448,21.97448,0,0,0,1.23045-10.74414c5.22289,6.38405,12.2815,10.46873,22.63607,10.029,21.261-1.23145,62.88037-4.52112,71.30323-3.47034,7.24785,1.01979,12.256,1.13091,21.79974,3.33477.08945.05242.1842.09475.2729.14792,6.02269,6.30719,5.62305,9.42172,11.80626,26.48389.63147,1.92592,1.301,3.8405,1.95969,5.75761-3.69234,1.05682-.89506.34194-18.245,1.85738-2.95906.27693-7.08481.129-5.90351.39864a24.25177,24.25177,0,0,0-3.56634-.13784c-6.72221-.31321-2.34472.285-13.02562-1.83294-15.70673-3.61623-30.596-10.42387-46.64219-12.6174-40.82613-7.959-55.76709,32.2793-66.90584,40.683-13.53513,9.832-18.96742,6.75295-45.40772,6.23437-51.64158-1.07371-103.32676.36034-154.94667,1.95137-11.42853.25073-22.9183.48306-34.28333-.92428a95.04138,95.04138,0,0,1-20.19485-6.01111c-.21872-.09474-.45029-.195-.72975-.31472-18.26085-8.28124-36.47787-18.64917-57.0144-19.22445-9.07323-.24846-18.51965.28247-26.78275,4.37295-7.54947,4.15246-13.60946,10.64385-18.90821,17.34262-2.62946,3.15964-4.821,6.85122-7.5976,9.90806-.10281-.37521-.2031-.77234-.30717-1.13923-.001.48154-.00328.97216-.005,1.456a19.06344,19.06344,0,0,1-5.32621,4.13961,32.27075,32.27075,0,0,1-5.33528,2.10257,34.55977,34.55977,0,0,0,4.69725-.80182,18.7024,18.7024,0,0,0,5.95391-2.59041c-.04813,13.41216.12952,27.43665,6.474,39.47322,8.68164,15.99526,28.67062,19.88894,43.07384,9.049,8.99864-6.81343,13.22468-17.97309,15.61526-28.65147,1.97632-8.49013,3.34687-17.22016,2.73833-25.95547-6.53549,19.83854-15.29575,46.81455-34.14248,49.0164-23.33029,2.632-27.806-24.46347-32.7752-43.64584a35.84987,35.84987,0,0,0,3.94457-3.24809c15.73824-15.78939,27.04683-22.56577,44.69158-18.37929,21.49156,3.20147,37.27616,18.87746,59.49647,29.39,22.022,10.58968,47.17565,10.27671,71.0908,11.33429q60.59133,2.153,121.2114.41225c30.8387-.91244,63.59651,6.80687,87.34939-18.27321,7.41769-7.55426,12.87594-16.91223,20.941-23.85266.0504-.034.099-.0708.14968-.10457a47.62769,47.62769,0,0,1,4.99435-1.45975c.4886-.05645.97367-.13683,1.46151-.19957l.02419-.002.1013-.01512c.82122-.10684,1.6437-.19982,2.45988-.33589.82878-.03679,2.5831-.11894,4.26989-.04209,1.76994.32305,4.793.89027,6.51532,1.41037,14.49847,3.43,28.6933,9.61247,43.33817,12.56145,1.7203,30.10618-16.85453,65.82155-40.38087,76.51957-10.26335,5.12614-25.30359.37874-32.749-13.07248-7.65757-12.27394-10.29233-31.038-12.63529-48.14655-1.99446,21.23-4.16052,45.45535,9.33882,63.53654,22.32765,28.5154,57.42591,11.33026,71.26392-16.18626,7.18082-14.00231,11.37436-29.94793,10.75422-45.73657a63.5801,63.5801,0,0,0-3.3645-16.51057,70.16115,70.16115,0,0,0,18.43926,1.02281c8.94447-1.11276,54.21385-2.37193,58.37034-22.22861a19.77093,19.77093,0,0,0-1.61522-13.31868C872.63042,568.33276,874.59439,573.46847,870.42983,562.1881ZM281.08271,617.08281c-.55361-.13305-.4886-1.751-.48381-4.01841-.005-4.80208-.45836-12.01339-.40544-15.56109,5.87251-.00226,14.375-1.89089,21.62183-4.24317,1.98817,9.51168,3.33654,18.83362,4.46619,28.34883C297.86366,620.80035,289.23393,620.04968,281.08271,617.08281Zm373.95653-91.2612c-6.4037.02217-12.38557.16731-18.02777-1.6689-4.1827-1.41137-7.26524-3.61347-8.07613-7.47917-6.63653-23.46965-11.63995-47.4294-19.385-70.57449,13.05988-1.14527,23.54247-2.12348,31.63824-.59972,6.4982,1.75129,19.35322,7.70217,32.273,16.73534a72.019,72.019,0,0,1,6.027,5.81758c8.151,8.94648,3.739,3.64874,9.67346,11.88009,10.9994,18.12731,10.83309,20.51461,17.64954,37.65263.925,2.512,1.92718,4.95453,3.02,7.29723C691.571,524.39487,673.29707,525.48017,655.03924,525.82161ZM704.703,551.22246c-2.14515,1.27505-2.76151,1.83647-5.42222,2.01362a124.11063,124.11063,0,0,0-2.23838-23.28393c4.628-.95326,9.25214-1.92492,13.89043-2.825.40645.792.85776,1.53157,1.29268,2.29029C714.18973,537.90706,710.929,546.62449,704.703,551.22246ZM849.4745,524.34774c4.67785-11.0886,7.66362-18.95734,16.27043-7.76366,8.13256,10.7895,12.78824,26.33043,5.47286,39.81743a16.52375,16.52375,0,0,1-2.01034,2.6078C862.8796,542.5378,859.64663,532.42916,849.4745,524.34774Z" transform="translate(-187.59806 -118.24816)"/><path d="M425.55839,553.30814a51.75491,51.75491,0,0,0,31.61632.14162C446.63569,553.74987,436.09238,553.73652,425.55839,553.30814Z" transform="translate(-187.59806 -118.24816)"/><path d="M620.69644,557.35276a64.34933,64.34933,0,0,0,20.42541.002A64.08576,64.08576,0,0,0,620.69644,557.35276Z" transform="translate(-187.59806 -118.24816)"/><path d="M749.53644,616.94523a20.54211,20.54211,0,0,0-3.97456,3.44388c2.13733-1.21684,4.47021-2.78318,7.04021-2.29483,3.23146.37974,5.38442,3.14679,6.764,5.8652,2.42359,4.07234,2.63878,10.75523,1.8536,14.73332-1.97506,8.91347-10.53928,18.14873-15.35068,5.02736-2.701-5.38417-5.14378-15.80224-2.67029-23.39279a29.8353,29.8353,0,0,0-2.56143,20.85152c1.11,5.27354,2.44753,11.5384,7.65027,14.247,10.18146,4.63753,18.56626-7.645,19.03218-16.69906C768.75509,629.012,761.62971,611.74526,749.53644,616.94523Z" transform="translate(-187.59806 -118.24816)"/><path d="M363.41558,619.11381a5.71965,5.71965,0,0,0-1.97052-.28978,4.84,4.84,0,0,1,2.68969,1.90576,14.36228,14.36228,0,0,1-.13078,15.91664c-3.11933,4.9752-9.19116,3.8201-10.23287-1.97934a15.28094,15.28094,0,0,1,3.744-16.94978,15.2201,15.2201,0,0,0-7.69966,16.29512c.36538,2.71917.62643,5.74854,2.65517,7.79894a9.34134,9.34134,0,0,0,15.28441-1.89014C371.99668,633.54827,370.47822,622.82127,363.41558,619.11381Z" transform="translate(-187.59806 -118.24816)"/><path d="M680.46535,508.43357c1.23723,3.90028-40.33178,11.79177-43.7398,12.70868,4.86209-13.75025-.698-43.09357,12.04028-53.3835C663.63472,455.7477,677.403,498.77965,680.46535,508.43357Z" transform="translate(-187.59806 -118.24816)" fill="#ff5722"/><path d="M318.60389,328.53975c-12.7234,11.95022-5.29647,35.98592,10.75271,42.85006s35.33337-.26074,47.6704-12.60944,19.24366-28.9635,25.85177-45.11978a16.29256,16.29256,0,0,0-24.12839-19.7168C355.95155,309.16967,329.63046,318.18323,318.60389,328.53975Z" transform="translate(-187.59806 -118.24816)" fill="#ff5722"/><path d="M378.11728,313.41409c-1.6294-14.092-12.41553-27.37378-27.543-26.4823-7.9751.18774-15.49365,2.73083-22.67774,6.06537a37.91121,37.91121,0,0,0-6.001,1.42193,41.97808,41.97808,0,0,0-12.60181,7.14954,121.47178,121.47178,0,0,1,12.13989-5.35571c-1.64795.86645-3.28125,1.74865-4.89721,2.63079a135.17445,135.17445,0,0,1,23.24536-7.22815,38.63224,38.63224,0,0,1,7.83935-.67077c3.36621.06561,5.8584.02923,8.90381,1.12579,9.66358,3.3009,14.16406,13.35065,15.46973,20.58209,1.13525,5.90686-1.59375,14.69452-2.98535,18.18616-3.29932,6.94281-6.08789,11.77582-10.85254,16.04883-2.44678,2.172-7.18164,4.11053-12.54981,5.81494-7.83935,2.70966-13.25586,2.9599-22.17383,2.5744-7.18432-.51855-18.58911-6.19824-23.38305-15.667-2.50513-4.57227-2.84937-10.14288-2.00611-15.38171a97.58517,97.58517,0,0,1,2.77955-14.48047,82.96651,82.96651,0,0,0-5.6626,20.28186,24.79285,24.79285,0,0,0,5.39966,17.34778,34.03709,34.03709,0,0,0,22.49755,13.40442c12.27,1.48809,24.78418-1.49134,35.68213-7.13038C370.29989,346.50228,379.43612,326.87423,378.11728,313.41409Z" transform="translate(-187.59806 -118.24816)"/><path d="M192.4279,677.73294l290.76629-.92046q145.38315-.46025,290.76629-.92047c54.0414-.17105,108.11927-.34209,162.09254,2.77344,6.4291.37111,6.40777-9.63013,0-10-48.07944-2.77531-96.25025-2.94788-144.39467-2.82606q-72.63959.1838-145.279.4565l-290.76629.92046-163.18516.51659c-6.43358.02037-6.446,10.02041,0,10Z" transform="translate(-187.59806 -118.24816)"/><path d="M852.0637,667.61567l39.81562-55.07329c12.94746-17.909,26.31795-35.58757,38.779-53.83911,10.87569-15.92947,20.98182-34.68517,18.47257-54.64008-2.46-19.56355-15.73806-35.89711-29.45274-49.20061C892.676,428.67,858.425,412.07349,827.22864,391.6757c-27.91246-18.25061-56.03119-42.79777-67.04727-74.99468a79.92712,79.92712,0,0,1-4.55624-24.63948c-.069-3.9676.39138-8.0324,3.1926-10.68383,2.50919-2.375,6.29355-3.601,9.776-4.705a339.79337,339.79337,0,0,1,62.88159-13.58106q7.92363-.93141,15.88291-1.49958a5.12177,5.12177,0,0,0,5-5c0-2.55477-2.29214-5.19618-5-5a358.95481,358.95481,0,0,0-64.97244,10.69452q-7.90518,2.07052-15.7079,4.51021c-4.26157,1.334-8.68085,2.788-12.34252,5.41563a19.66291,19.66291,0,0,0-8.10575,12.38736,48.82992,48.82992,0,0,0-.14018,14.40286c3.93927,36.18038,28.70069,65.57653,56.418,87.25145,29.46194,23.03918,63.91151,38.61815,93.5379,61.42231,14.3169,11.02007,28.582,24.19379,37.34226,40.20435a46.32635,46.32635,0,0,1,5.95986,26.4603c-.79174,9.20833-4.56851,18.02936-9.00775,26.029-4.917,8.86055-10.88894,17.06448-16.81617,25.26307l-20.027,27.70153-40.054,55.40308L843.429,662.56848c-1.58307,2.18973-.37719,5.57117,1.79376,6.841,2.5231,1.47576,5.25417.40109,6.841-1.79376Z" transform="translate(-187.59806 -118.24816)"/><path d="M844.74182,410.12179a248.92846,248.92846,0,0,1-49.6144-1.04477q-.77005-.09594-1.53942-.19729c.97561.12886-.70667-.09881-.72074-.10079q-1.536-.21652-3.06884-.45431-3.0637-.47535-6.11323-1.03675-6.09035-1.122-12.10874-2.59628a196.463,196.463,0,0,1-23.58668-7.3654q-1.44228-.55384-2.87527-1.1315-.71657-.28888-1.43071-.58375c.01912.00789-1.53734-.64673-.70581-.29307q-2.84587-1.2104-5.64793-2.52106-5.29327-2.47245-10.41452-5.29345a166.0089,166.0089,0,0,1-18.05188-11.55331q-1.08095-.79471-2.1489-1.60693c-.0842-.064-1.25506-.97034-.406-.30878q-.52914-.41229-1.05559-.828-2.10408-1.66435-4.1529-3.397-4.09379-3.46238-7.95231-7.19079a161.30754,161.30754,0,0,1-14.31708-15.87149c-.914-1.15425.58246.77842-.30628-.39507-.26838-.35438-.5381-.70771-.80477-1.06339q-.79971-1.06658-1.58011-2.14745Q674.58018,340.981,673.1,338.765q-2.95567-4.42626-5.57557-9.06488-2.61336-4.63269-4.86252-9.45863-.56125-1.206-1.09841-2.42293c-.17907-.40577-.3541-.81324-.53108-1.21991-.58712-1.3491.36851.92271-.18507-.44078-.66827-1.646-1.32366-3.29527-1.93483-4.96352a121.65865,121.65865,0,0,1-5.38764-19.54491q-.45179-2.42331-.80484-4.86364c-.02951-.20378-.20975-1.58026-.04588-.298-.0347-.27153-.07028-.54293-.10407-.81458q-.17736-1.42593-.32159-2.85572-.49459-4.90118-.60443-9.831a137.27714,137.27714,0,0,1,1.042-19.67894c.1677-1.38009-.16041,1.07392.04-.302.05932-.40721.11615-.81475.177-1.22175q.18261-1.22121.3874-2.439.40967-2.43639.90721-4.85692.99532-4.84344,2.33568-9.60734,1.33947-4.7628,3.01465-9.42257.83694-2.32827,1.75594-4.62595c.25523-.63814.51718-1.27338.77974-1.90853-.46124,1.11577.0702-.16214.14-.32393q.32646-.75721.66185-1.51053a138.01816,138.01816,0,0,1,9.30286-17.43086q2.6312-4.1762,5.56293-8.15267.73209-.99234,1.48242-1.97086c-.7156.93732.12316-.15479.22653-.28617q.3811-.48435.76673-.96511,1.542-1.92243,3.15584-3.7858a125.80577,125.80577,0,0,1,14.00434-13.83623c1.20485-1.0153,2.43243-2.00166,3.67207-2.974.64568-.50645-.93684.69925.129-.09529.32979-.24583.65655-.49569.98674-.741q1.15637-.8591,2.33326-1.69005,4.38491-3.09576,9.03415-5.789,5.34633-3.11442,10.95329-5.74909c1.70886-.80654,3.43378-1.57714,5.16888-2.32536a6.04013,6.04013,0,0,1,.706-.29636c.47736-.19507.95384-.39216,1.43213-.585q1.67481-.6752,3.36353-1.3152c15.52885-5.88852,31.797-9.59707,48.14-12.38573,17.71444-3.02267,35.19718-4.98276,53.45832-6.30374,18.26482-1.32124,36.57684-1.90977,54.88692-2.04564,8.15851-.06054,16.42249-.37149,24.56228.30427.846.07023,1.68889.1626,2.53231.25809.22693.02569.97048.16546-.07226-.01056.415.07006.83238.126,1.24735.197a39.42027,39.42027,0,0,1,5.23109,1.24125c.70785.22361,1.396.49094,2.09264.745.749.2731-1.055-.52725.08965.04626.35424.17749.71509.3398,1.06665.5232a22.09893,22.09893,0,0,1,2.02941,1.19669q.48842.32526.95758.67787c-1.01232-.75991.31581.31136.49042.47336a18.24463,18.24463,0,0,1,1.50431,1.57314c.18186.21438.67258.95427.08906.09817.25715.37727.51888.74812.75756,1.13792q.37283.60885.69735,1.24552c.034.06646.66464,1.482.27715.53235a23.18583,23.18583,0,0,1,1.00867,3.17159c.21264.85609.38331,1.72186.52465,2.59241.03687.22707.16625,1.27231.05762.35118q.08555.72545.15151,1.45283c.19144,2.11877.25753,4.24612.31078,6.37205q.32793,13.0923-.03544,26.19a509.18633,509.18633,0,0,1-4.16227,52.19654c-.06491.49483-.12366.92547-.261,1.91533q-.225,1.62158-.46056,3.24163-.5103,3.51015-1.06972,7.01292-1.03275,6.46645-2.2324,12.90478-2.399,12.87505-5.4617,25.61471A503.41228,503.41228,0,0,1,908.7056,331.8279c-5.49838,15.53907-10.6259,29.79026-19.55839,43.77644a74.51423,74.51423,0,0,1-6.51715,8.91532,73.40549,73.40549,0,0,1-8.01861,8.08065c-.72165.62021-1.45954,1.2194-2.20043,1.81627-1.21169.97614.7597-.54131-.49419.38-.38328.28164-.76338.56724-1.14932.84531q-2.3154,1.66825-4.756,3.15279-2.43846,1.48365-4.98643,2.77643-1.27281.64587-2.56977,1.24255c-.43231.19889-.868.38961-1.3023.58407-1.05914.47426.42621-.1542-.559.23562a78.70847,78.70847,0,0,1-10.40127,3.36q-2.77292.6728-5.59306,1.12611c-.46953.07533-.93981.14693-1.41089.212,1.09888-.15172-.45969.04888-.55823.06-.94568.10668-1.89319.191-2.84214.26247-2.60208.19595-5.12723,2.15936-5,5,.1138,2.54072,2.20689,5.21033,5,5a79.65361,79.65361,0,0,0,45.16865-18.36738c12.62669-10.56341,21.00036-25.20951,27.438-40.13857,14.11588-32.73518,24.0338-67.52859,30.48244-102.55593a498.15718,498.15718,0,0,0,8.323-107.04133c-.28984-8.4046-1.63887-17.20811-7.96517-23.33278-5.63656-5.45691-13.33424-7.46828-20.90984-8.33951-8.05526-.9264-16.29379-.57058-24.38467-.527q-14.02257.07548-28.03968.53324c-18.67142.63456-37.32926,1.87682-55.89024,4.02451-17.87826,2.06869-35.784,4.74566-53.267,9.08064-16.76139,4.15607-33.28609,10.03149-48.24858,18.74765a127.81232,127.81232,0,0,0-32.18348,26.68919,143.73224,143.73224,0,0,0-33.57293,75.473,129.5683,129.5683,0,0,0,15.93368,81.46135c14.56651,26.0158,37.17724,47.4033,63.19577,61.77718,29.86811,16.50056,64.09508,24.03474,98.04543,24.70546,8.28251.16363,16.56835-.094,24.828-.72175,2.6019-.19775,5.12729-2.15806,5-5-.11373-2.53916-2.207-5.21227-5-5Z" transform="translate(-187.59806 -118.24816)"/></svg>